# xmcd
#
# Track frame offsets:
# 150
# 46922
# 143707
# 197566
# 215711
# 233641
# 261327
# 300872
#
# Disc length: 4411 seconds
#
#
# Revision: 5
# Processed by: cddbd v1.5.1PL0 Copyright (c) Steve Scherf et al.
# Submitted via: FreeRIP 2.92 
#
DISCID=69113908
DTITLE=Steve Roach and Vidna Obmana - Spirit Dome
DYEAR=2004
DGENRE=New Age
TTITLE0=Part 01
TTITLE1=Part 02
TTITLE2=Part 03
TTITLE3=Part 04
TTITLE4=Part 05
TTITLE5=Part 06
TTITLE6=Part 07
TTITLE7=Part 08
EXTD=YEAR: 2004
EXTT0=
EXTT1=
EXTT2=
EXTT3=
EXTT4=
EXTT5=
EXTT6=
EXTT7=
PLAYORDER=
